<svg width="116" height="28" viewBox="0 0 116 28" fill="none" xmlns="http://www.w3.org/2000/svg">
<g clip-path="url(#clip0_571_460)">
<path d="M12.6396 18.0667L16.5298 24.1282L20.124 22.0602L15.0136 14.0662L12.6396 18.0667Z" fill="white"/>
<path d="M23.3962 19.6288V17.9726L17.8131 9.34082L15.7402 12.8287L21.1307 21.4831L23.0793 20.3622C23.1742 20.2863 23.2518 20.1912 23.307 20.0834C23.3622 19.9756 23.3938 19.8574 23.3997 19.7366L23.3962 19.6288Z" fill="white"/>
<path d="M-0.000200683 21.1911L2.75194 22.7656L11.91 8.18687L10.3554 8.14516C9.03182 8.12778 7.60497 8.46839 6.9502 9.53543L1.74878 17.5295L-0.00195312 20.1988V21.1893L-0.000200683 21.1911Z" fill="white"/>
<path d="M17.1954 8.18701L13.1004 8.20091L3.83203 23.3826L7.07089 25.2334L7.9515 23.7511L17.1954 8.18701Z" fill="white"/>
<path d="M25.1195 8.16609C25.1018 7.74569 24.981 7.33593 24.7674 6.97248C24.5538 6.60903 24.254 6.30288 23.894 6.08069L13.7152 0.269367C13.3515 0.0923028 12.9517 0.000244141 12.5466 0.000244141C12.1415 0.000244141 11.7417 0.0923028 11.378 0.269367C11.294 0.312812 1.47411 5.96425 1.47411 5.96425C1.3382 6.03059 1.20768 6.10729 1.0837 6.19365C0.765181 6.41908 0.502205 6.71317 0.314521 7.05387C0.126836 7.39457 0.0193127 7.77304 0 8.16088V20.2006L1.75073 17.5313L1.73672 8.24255C1.73811 8.20869 1.74221 8.17498 1.74898 8.14176C1.78847 7.92109 1.91435 7.7249 2.09913 7.59608C2.1464 7.56306 12.1326 1.82473 12.1641 1.80909C12.284 1.75204 12.4154 1.72242 12.5484 1.72242C12.6814 1.72242 12.8127 1.75204 12.9327 1.80909L22.9836 7.54395C23.1003 7.61838 23.1975 7.71928 23.2672 7.83832C23.3369 7.95737 23.3771 8.09115 23.3845 8.22865V19.7349C23.3822 19.8544 23.3542 19.9721 23.3022 20.08C23.2503 20.188 23.1757 20.2836 23.0834 20.3605L21.1348 21.4814L20.1299 22.0601L16.5357 24.1264L12.8906 26.2239C12.6887 26.2939 12.4681 26.2896 12.2691 26.2118L7.95182 23.7545L7.07646 25.2386L10.9526 27.4526L11.2887 27.642C11.4323 27.7219 11.5321 27.7758 11.5671 27.7932C11.8916 27.9341 12.2423 28.0057 12.5965 28.0035C12.9209 28.0045 13.2427 27.9455 13.5454 27.8297L24.1321 21.7473C24.4306 21.5165 24.6746 21.2236 24.8467 20.8891C25.0188 20.5546 25.1149 20.1867 25.1282 19.8113L25.1195 8.16609Z" fill="white"/>
<path d="M34.8343 11.8313C35.0324 11.8254 35.2284 11.8728 35.4015 11.9686C35.5931 12.1023 35.7478 12.2816 35.8515 12.4899L38.7752 17.7747C38.7888 17.7959 38.7978 17.8196 38.8017 17.8445C38.8057 17.8693 38.8044 17.8946 38.798 17.9189C38.7822 17.9572 38.7402 17.9763 38.6702 17.9763H37.5497C37.5082 17.9804 37.4665 17.9718 37.4302 17.9516C37.3939 17.9314 37.3647 17.9006 37.3466 17.8633L36.7181 16.7303H32.5618L31.9473 17.8633C31.9278 17.8994 31.8983 17.9291 31.8623 17.9491C31.8264 17.9691 31.7854 17.9785 31.7443 17.9763H30.594C30.517 17.9763 30.4715 17.9572 30.4575 17.9189C30.4502 17.8948 30.4484 17.8694 30.452 17.8445C30.4556 17.8196 30.4647 17.7958 30.4785 17.7747L33.3794 12.4986C33.4815 12.2938 33.6302 12.1153 33.8136 11.9773C33.9617 11.8845 34.134 11.8367 34.3091 11.84L34.8343 11.8313ZM33.1186 15.7119H36.1613L34.7608 13.1399C34.7517 13.1217 34.7377 13.1064 34.7204 13.0957C34.7031 13.085 34.6831 13.0792 34.6627 13.0791H34.6102C34.5898 13.0792 34.5698 13.085 34.5525 13.0957C34.5352 13.1064 34.5212 13.1217 34.5122 13.1399L33.1186 15.7119Z" fill="white"/>
<path d="M48.0647 11.8313C48.744 11.8313 49.2289 11.9842 49.5248 12.2883C49.8207 12.5924 49.966 13.0443 49.966 13.6403V14.1408C49.9882 14.5607 49.8807 14.9772 49.6579 15.3347C49.5363 15.4906 49.3843 15.6207 49.2111 15.7171C49.0379 15.8135 48.8468 15.8744 48.6494 15.896L50.1603 17.7573C50.1758 17.7752 50.1864 17.7967 50.1913 17.8198C50.1962 17.8428 50.1952 17.8668 50.1883 17.8893C50.1761 17.9467 50.1288 17.9762 50.0465 17.9762H48.905C48.8506 17.9804 48.7959 17.9714 48.7457 17.9502C48.7107 17.9277 48.6809 17.898 48.6582 17.8633L47.2576 16.0368H44.4004V17.7746C44.4035 17.8007 44.4006 17.8271 44.3919 17.8519C44.3832 17.8767 44.369 17.8993 44.3503 17.9178C44.3316 17.9364 44.3089 17.9505 44.284 17.9591C44.259 17.9677 44.2323 17.9706 44.2061 17.9675H43.2502C43.1154 17.9675 43.0471 17.9032 43.0471 17.7746V12.0954C43.0422 12.0596 43.0457 12.0231 43.0573 11.9888C43.0689 11.9545 43.0884 11.9234 43.1142 11.8978C43.1399 11.8722 43.1713 11.8529 43.2058 11.8414C43.2403 11.8298 43.2771 11.8264 43.3132 11.8313H48.0647ZM44.4039 14.9594H47.7916C47.9051 14.9712 48.0199 14.9602 48.1291 14.927C48.2383 14.8939 48.3396 14.8393 48.4271 14.7665C48.5642 14.6016 48.6313 14.3904 48.6144 14.1773V13.8089C48.6314 13.5964 48.5642 13.3856 48.4271 13.2215C48.3398 13.1484 48.2385 13.0935 48.1293 13.06C48.0201 13.0266 47.9052 13.0153 47.7916 13.0269H44.5195C44.4424 13.0269 44.4039 13.0634 44.4039 13.1329V14.9594Z" fill="white"/>
<path d="M59.8554 11.8313C60.4634 11.8313 60.8953 11.9517 61.1509 12.1927C61.4083 12.4325 61.5361 12.794 61.5361 13.2806V13.7012C61.5476 13.9199 61.5015 14.1378 61.4024 14.3335C61.3032 14.5291 61.1544 14.6957 60.9706 14.8169C61.1682 14.9304 61.33 15.0964 61.4376 15.2963C61.5453 15.4962 61.5945 15.722 61.5798 15.9482V16.4556C61.5826 16.6691 61.5561 16.8819 61.501 17.0882C61.4528 17.266 61.3634 17.4302 61.2402 17.5678C61.1065 17.7064 60.9406 17.8102 60.757 17.8702C60.5171 17.9455 60.2662 17.9807 60.0147 17.9745H54.7625C54.7265 17.9797 54.6897 17.9765 54.6552 17.9652C54.6206 17.9539 54.5892 17.9347 54.5634 17.9093C54.5376 17.8838 54.5181 17.8527 54.5065 17.8185C54.4948 17.7843 54.4914 17.7479 54.4964 17.7121V12.0954C54.4914 12.0596 54.4949 12.0231 54.5066 11.9888C54.5182 11.9545 54.5376 11.9234 54.5634 11.8978C54.5892 11.8722 54.6206 11.8529 54.6551 11.8414C54.6896 11.8298 54.7264 11.8264 54.7625 11.8313H59.8554ZM55.8497 14.3859H59.4754C59.6845 14.4071 59.8949 14.3614 60.0759 14.2555C60.1306 14.2073 60.1734 14.1473 60.201 14.0801C60.2286 14.013 60.2403 13.9404 60.2352 13.868V13.5691C60.2418 13.4955 60.2313 13.4214 60.2046 13.3524C60.1779 13.2834 60.1357 13.2214 60.0812 13.1711C59.9344 13.0732 59.7584 13.0278 59.5822 13.0425H55.9652C55.9495 13.0402 55.9334 13.0415 55.9183 13.0464C55.9032 13.0514 55.8895 13.0598 55.8783 13.0709C55.867 13.0821 55.8586 13.0957 55.8536 13.1107C55.8487 13.1257 55.8473 13.1416 55.8497 13.1572V14.3859ZM55.8497 15.3434V16.6503C55.8473 16.6659 55.8487 16.6818 55.8536 16.6968C55.8586 16.7118 55.867 16.7254 55.8783 16.7366C55.8895 16.7477 55.9032 16.7561 55.9183 16.761C55.9334 16.766 55.9495 16.7673 55.9652 16.765H59.591C59.7682 16.7813 59.9456 16.7365 60.0934 16.6381C60.1477 16.5855 60.1893 16.5215 60.2154 16.4509C60.2414 16.3802 60.2512 16.3046 60.244 16.2297V15.896C60.249 15.8197 60.2369 15.7433 60.2088 15.6721C60.1807 15.6009 60.1371 15.5368 60.0812 15.4842C59.9007 15.3715 59.6875 15.322 59.4754 15.3434H55.8497Z" fill="white"/>
<path d="M67.1932 11.8313C67.2196 11.8282 67.2464 11.8311 67.2715 11.8398C67.2967 11.8485 67.3195 11.8628 67.3382 11.8815C67.3569 11.9003 67.3711 11.9231 67.3796 11.9481C67.3882 11.9731 67.3909 11.9997 67.3875 12.0259V17.7834C67.3906 17.8095 67.3877 17.8359 67.379 17.8607C67.3704 17.8855 67.3561 17.908 67.3374 17.9266C67.3187 17.9451 67.296 17.9592 67.271 17.9679C67.2461 17.9765 67.2194 17.9793 67.1932 17.9763H66.2373C66.1025 17.9763 66.0342 17.912 66.0342 17.7834V12.0259C66.0342 11.8956 66.1025 11.8313 66.2373 11.8313H67.1932Z" fill="white"/>
<path d="M78.7741 11.8312C78.9089 11.8312 78.9772 11.8955 78.9772 12.0258V12.8843C78.9825 12.912 78.9809 12.9405 78.9726 12.9675C78.9643 12.9944 78.9495 13.0189 78.9295 13.039C78.9095 13.059 78.885 13.0738 78.8579 13.0823C78.8308 13.0908 78.8021 13.0926 78.7741 13.0876H75.9975V17.7798C76.0006 17.8058 75.9977 17.8323 75.989 17.8571C75.9803 17.8819 75.9661 17.9044 75.9474 17.923C75.9287 17.9415 75.906 17.9556 75.881 17.9643C75.856 17.9729 75.8294 17.9757 75.8032 17.9727H74.8403C74.814 17.9757 74.7874 17.9729 74.7624 17.9643C74.7374 17.9556 74.7147 17.9415 74.696 17.923C74.6773 17.9044 74.6631 17.8819 74.6544 17.8571C74.6457 17.8323 74.6428 17.8058 74.6459 17.7798V13.0876H71.864C71.8362 13.0925 71.8077 13.0907 71.7808 13.0823C71.7539 13.0739 71.7294 13.0592 71.7095 13.0394C71.6895 13.0196 71.6747 12.9953 71.6663 12.9686C71.6578 12.9419 71.656 12.9136 71.6609 12.886V12.0171C71.6609 11.8885 71.7292 11.8242 71.864 11.8242H78.7706L78.7741 11.8312Z" fill="white"/>
<path d="M88.2593 11.8311C88.9363 11.8311 89.4224 11.9834 89.7177 12.2881C90.0136 12.5922 90.1606 13.0441 90.1606 13.6402V14.1407C90.1833 14.5608 90.0751 14.9776 89.8507 15.3345C89.7292 15.4904 89.5772 15.6205 89.404 15.7169C89.2308 15.8133 89.0397 15.8742 88.8423 15.8959L90.355 17.7571C90.3704 17.775 90.3809 17.7966 90.3855 17.8197C90.3901 17.8428 90.3886 17.8668 90.3812 17.8892C90.369 17.9465 90.3217 17.9761 90.2394 17.9761H89.0997C89.0452 17.9804 88.9905 17.9715 88.9404 17.95C88.9051 17.9271 88.8748 17.8976 88.8511 17.8631L87.4505 16.0366H84.595V17.7745C84.5981 17.8005 84.5952 17.827 84.5866 17.8518C84.5779 17.8766 84.5637 17.8991 84.545 17.9177C84.5263 17.9362 84.5036 17.9503 84.4786 17.9589C84.4536 17.9676 84.427 17.9704 84.4007 17.9674H83.4448C83.31 17.9674 83.2417 17.9031 83.2417 17.7745V12.0952C83.2364 12.0593 83.2397 12.0227 83.2512 11.9882C83.2627 11.9538 83.2821 11.9225 83.308 11.8968C83.3338 11.8712 83.3653 11.8519 83.4 11.8404C83.4348 11.829 83.4717 11.8258 83.5078 11.8311H88.2593ZM84.5985 14.9592H87.9845C88.0983 14.9707 88.2133 14.9596 88.3227 14.9265C88.4321 14.8934 88.5338 14.8389 88.6217 14.7663C88.7582 14.6012 88.8247 14.39 88.8073 14.1771V13.8087C88.8248 13.5964 88.7582 13.3857 88.6217 13.2213C88.5339 13.1484 88.4323 13.0936 88.3229 13.0602C88.2135 13.0268 88.0984 13.0154 87.9845 13.0267H84.7123C84.6371 13.0267 84.5985 13.0632 84.5985 13.1327V14.9592Z" fill="white"/>
<path d="M95.7196 11.8313C95.7461 11.8279 95.7731 11.8305 95.7985 11.8391C95.8238 11.8477 95.8469 11.8619 95.8658 11.8807C95.8847 11.8995 95.8991 11.9224 95.9077 11.9476C95.9164 11.9727 95.9191 11.9995 95.9156 12.0259V15.5276C95.9111 15.7238 95.9299 15.9198 95.9717 16.1116C96.0015 16.2489 96.0673 16.376 96.1625 16.48C96.2594 16.5746 96.3805 16.6413 96.5126 16.6729C96.6992 16.7151 96.8903 16.7344 97.0816 16.7302H99.5327C99.724 16.7343 99.9151 16.715 100.102 16.6729C100.237 16.6428 100.361 16.576 100.461 16.48C100.555 16.3764 100.62 16.249 100.646 16.1116C100.685 15.9194 100.702 15.7236 100.699 15.5276V12.0259C100.695 11.9997 100.698 11.9731 100.706 11.9481C100.715 11.923 100.729 11.9003 100.748 11.8815C100.767 11.8627 100.789 11.8485 100.815 11.8398C100.84 11.8311 100.867 11.8281 100.893 11.8313H101.858C101.884 11.8281 101.911 11.8311 101.936 11.8398C101.961 11.8485 101.984 11.8627 102.003 11.8815C102.021 11.9003 102.036 11.923 102.044 11.9481C102.053 11.9731 102.055 11.9997 102.052 12.0259V15.6597C102.06 16.0222 102.015 16.3839 101.919 16.7337C101.844 17.0081 101.696 17.2573 101.49 17.4549C101.272 17.6501 101.007 17.787 100.721 17.8529C100.347 17.9424 99.9618 17.9839 99.5764 17.9763H97.0291C96.6448 17.984 96.2612 17.9426 95.8876 17.8529C95.6034 17.7863 95.3408 17.6494 95.1243 17.4549C94.9177 17.257 94.7678 17.0081 94.6901 16.7337C94.5919 16.3843 94.5459 16.0224 94.5536 15.6597V12.0259C94.5536 11.8956 94.6201 11.8313 94.7567 11.8313H95.7196Z" fill="white"/>
<path d="M108.36 11.8311C108.472 11.8293 108.585 11.8386 108.696 11.8589C108.785 11.8736 108.869 11.9081 108.943 11.9597C109.019 12.0138 109.084 12.0823 109.133 12.1613C109.202 12.2683 109.26 12.3811 109.308 12.4984L111.147 16.7127C111.157 16.737 111.174 16.7576 111.196 16.7716C111.218 16.7857 111.245 16.7924 111.271 16.7909H111.376C111.402 16.7927 111.429 16.7861 111.451 16.772C111.473 16.7579 111.491 16.7371 111.5 16.7127L113.34 12.4984C113.389 12.3811 113.447 12.2683 113.515 12.1613C113.566 12.0826 113.63 12.0142 113.706 11.9597C113.779 11.9087 113.862 11.8743 113.95 11.8589C114.059 11.8385 114.17 11.8292 114.281 11.8311H115.228C115.534 11.8311 115.741 11.9006 115.846 12.0379C115.972 12.2514 116.027 12.4987 116.005 12.7452V17.7849C116.005 17.9135 115.938 17.9778 115.802 17.9778H114.9C114.874 17.9809 114.847 17.978 114.822 17.9694C114.797 17.9608 114.775 17.9467 114.756 17.9281C114.737 17.9095 114.723 17.887 114.714 17.8622C114.706 17.8374 114.703 17.811 114.706 17.7849V13.2005C114.706 13.1431 114.681 13.1136 114.634 13.1136H114.555C114.531 13.1105 114.506 13.1157 114.485 13.1283C114.464 13.141 114.448 13.1603 114.44 13.1831L112.656 17.1158C112.596 17.2552 112.523 17.389 112.439 17.5155C112.373 17.6157 112.293 17.7058 112.201 17.7832C112.115 17.8532 112.015 17.9041 111.908 17.9326C111.783 17.9639 111.654 17.9785 111.525 17.9761H111.099C110.97 17.9783 110.84 17.9637 110.714 17.9326C110.608 17.9041 110.509 17.8531 110.424 17.7832C110.331 17.7059 110.25 17.6158 110.184 17.5155C110.1 17.3889 110.028 17.2552 109.968 17.1158L108.181 13.1831C108.173 13.1606 108.157 13.1415 108.136 13.1289C108.116 13.1163 108.091 13.1109 108.067 13.1136H107.987C107.939 13.1136 107.917 13.1431 107.917 13.2005V17.7832C107.92 17.8092 107.917 17.8357 107.908 17.8605C107.899 17.8853 107.885 17.9078 107.867 17.9264C107.848 17.9449 107.825 17.959 107.8 17.9676C107.775 17.9763 107.749 17.9791 107.722 17.9761H106.821C106.684 17.9761 106.616 17.9118 106.616 17.7832V12.7434C106.594 12.497 106.65 12.25 106.775 12.0361C106.882 11.8989 107.09 11.8293 107.404 11.8293L108.36 11.8311Z" fill="white"/>
</g>
<defs>
<clipPath id="clip0_571_460">
<rect width="116" height="28" fill="white"/>
</clipPath>
</defs>
</svg>
